<svg width="36" height="40" viewBox="0 0 36 40" fill="none" xmlns="http://www.w3.org/2000/svg">
<g clip-path="url(#clip0_33_187)">
<rect width="35.6225" height="39.0465" transform="translate(0.192383 0.525131)" fill="black"/>
<path d="M18.0036 0.525131C8.16737 0.525131 0.192383 9.26667 0.192383 20.0484C0.192383 30.8301 8.16737 39.5716 18.0036 39.5716C27.8399 39.5716 35.8149 30.8301 35.8149 20.0484C35.8149 9.26667 27.8399 0.525131 18.0036 0.525131ZM10.5259 13.02C11.645 13.02 12.5104 13.9132 12.6113 14.9723C12.7137 15.9208 12.3575 16.7571 11.3912 17.2598C10.8821 17.538 10.6788 17.5396 10.5763 17.3721C10.5259 17.2598 10.5763 17.1492 10.6788 17.0369C11.5946 16.2007 11.5946 15.5304 11.4921 14.5835C11.4417 13.9685 11.035 13.578 10.6268 13.578C8.84569 13.578 6.30164 17.9285 6.65787 21.1091C6.81075 22.3359 7.47273 23.7871 8.89763 23.7871C9.35479 23.7871 9.86241 23.6195 10.3225 23.3966C11.0647 22.9671 11.5085 22.632 11.9508 22.0951C11.8424 20.6552 12.9957 18.7664 14.6982 18.7664C15.4626 18.7664 16.0726 19.0999 16.1231 19.7149C16.224 20.5511 15.5635 20.6617 15.3602 20.6617C15.1568 20.6617 14.7991 20.6064 14.7991 20.3852C14.7486 20.1606 15.2577 20.2713 15.2073 19.7702C15.1553 19.435 14.851 19.3244 14.5453 19.3244C13.4766 19.3244 12.8666 20.9416 13.018 21.9454C13.0699 22.3928 13.2733 22.8386 13.6814 22.8386C13.9857 22.8386 14.4444 22.3342 14.5972 21.6102C14.6982 21.1091 15.1063 20.774 15.4626 20.774C15.614 20.774 15.7149 20.8293 15.7668 21.0522V21.2767C15.7164 21.4996 15.5635 22.1683 15.6154 22.3359C15.6154 22.4481 15.6659 22.6141 15.8678 22.6141C16.0043 22.6141 16.5149 22.3212 17.0211 21.8673C17.1947 20.9074 17.3966 19.7555 17.3966 19.6595C17.447 19.2691 17.5999 18.8786 18.3124 18.8786C18.4652 18.8786 18.5662 18.9339 18.6166 19.1568V19.3813L18.4148 20.3852C19.0753 19.4367 20.043 18.768 20.6531 18.768C20.9084 18.768 21.1117 18.9339 21.1117 19.2138C21.1117 19.3813 21.1117 19.6595 21.0093 19.9394C20.8059 20.5527 20.5506 21.5012 20.3978 22.3375C20.3978 22.5604 20.4497 22.7833 20.705 22.7833C20.9588 22.7833 21.7217 22.4481 22.3318 21.5566L22.3422 21.55C22.3392 21.4394 22.3318 21.332 22.3318 21.2214C22.3318 20.5527 22.3837 19.9947 22.4861 19.6042C22.5871 19.1584 23.0962 18.768 23.4019 18.768C23.5548 18.768 23.7062 18.8802 23.7062 19.0462C23.7062 19.1031 23.7062 19.2138 23.6557 19.2691C23.4524 19.9947 23.2995 20.6634 23.2995 21.3337C23.2995 21.7241 23.35 22.2805 23.4509 22.6157C23.4509 22.671 23.5029 22.7279 23.5548 22.7279C23.6557 22.7279 24.3682 22.004 24.8758 21.0555C24.4187 20.7203 24.1634 20.1623 24.1634 19.4936C24.1634 18.3222 24.8254 17.7088 25.4369 17.7088C25.946 17.7088 26.3527 18.0993 26.3527 18.8802C26.3527 19.3813 26.1998 19.9377 25.946 20.4421H26.0974C26.2588 20.4479 26.4196 20.416 26.569 20.3487C26.7184 20.2814 26.8531 20.1802 26.9642 20.0516C27.0109 19.9671 27.0804 19.9006 27.1631 19.8613C27.6603 19.1698 28.395 18.6573 29.2559 18.6573C29.9684 18.6573 30.6274 18.9909 30.6793 19.6042C30.7802 20.4421 30.1183 20.6097 29.9149 20.6097L29.912 20.6064C29.7071 20.6064 29.3524 20.5495 29.3524 20.3266C29.3524 20.1037 29.811 20.216 29.7591 19.7149C29.7086 19.3797 29.4028 19.2675 29.0971 19.2675C28.0789 19.2675 27.4199 20.7171 27.5713 21.8884C27.6217 22.3359 27.8251 22.837 28.2318 22.837C28.5375 22.837 28.9962 22.3359 29.1995 21.6102C29.3004 21.1645 29.7086 20.774 30.0648 20.774C30.2177 20.774 30.3172 20.8293 30.3691 21.0522C30.3691 21.1645 30.3691 21.3873 30.1658 22.113C29.9134 22.6141 29.9119 22.8939 29.9624 23.1168C30.0129 23.5626 30.2162 23.8977 30.4211 24.0653C30.4715 24.1206 30.522 24.2312 30.522 24.2312C30.522 24.3435 30.4715 24.4558 30.3186 24.4558C30.2682 24.4558 30.2177 24.4558 30.1658 24.3988C29.4028 24.0653 29.0971 23.5072 28.9947 22.9492C28.6904 23.3397 28.3342 23.5626 27.926 23.5626C27.2655 23.5626 26.605 22.8939 26.5011 22.056C26.4719 21.6994 26.5098 21.3401 26.6124 21.0001C26.3111 21.2116 25.9861 21.3304 25.6877 21.3304H25.4354C24.7719 22.3912 24.0595 23.1168 23.5504 23.4503C23.3775 23.5512 23.1864 23.609 22.9908 23.6195C22.8899 23.6195 22.737 23.5626 22.6865 23.4503C22.5455 23.203 22.455 22.8125 22.4001 22.3651C21.6861 23.2225 20.7006 23.6748 20.2434 23.6748C19.7343 23.6748 19.43 23.3397 19.3796 22.78V22.1683C19.531 20.9416 19.9391 20.216 19.9391 19.9931C19.9377 19.9636 19.9265 19.9358 19.9077 19.9148C19.8888 19.8938 19.8635 19.8811 19.8367 19.8792C19.4805 19.8792 18.3109 21.2198 18.1061 22.113L17.9532 22.837C17.8522 23.3397 17.3936 23.6748 17.0893 23.6748C16.9364 23.6748 16.834 23.6179 16.7836 23.395V23.1721L16.8518 22.793C16.2062 23.2974 15.5605 23.6195 15.2563 23.6195C14.7991 23.6195 14.5438 23.3397 14.4933 22.9492C14.1876 23.395 13.8328 23.6195 13.3742 23.6195C12.8517 23.6195 12.3411 23.229 12.0948 22.6547C11.7326 23.1021 11.3185 23.5544 10.8302 23.8977C10.1177 24.4004 9.30432 24.7909 8.33658 24.7909C7.47273 24.7909 6.70833 24.2882 6.30164 23.8424C5.69012 23.229 5.33538 22.2805 5.28343 21.3873C4.97916 18.6541 6.50499 15.1399 8.84569 13.578C9.40674 13.2445 9.96631 13.02 10.5259 13.02ZM25.0272 18.3743C24.8728 18.3743 24.7719 18.6541 24.7719 18.9323C24.7719 19.3781 24.9753 19.8808 25.2306 20.1606C25.3301 19.8563 25.3813 19.5355 25.382 19.2121C25.382 18.6541 25.1801 18.3743 25.0272 18.3743Z" fill="white"/>
</g>
<defs>
<clipPath id="clip0_33_187">
<rect width="35.6225" height="39.0465" fill="white" transform="translate(0.192383 0.525131)"/>
</clipPath>
</defs>
</svg>
