<svg width="37" height="40" viewBox="0 0 37 40" fill="none" xmlns="http://www.w3.org/2000/svg">
<rect width="35.6225" height="39.0465" transform="translate(0.394897 0.929108)" fill="black"/>
<path fill-rule="evenodd" clip-rule="evenodd" d="M21.8346 15.8463C19.7169 15.8463 18.0002 17.7277 18.0002 20.0488C18.0002 22.3702 19.7169 24.2519 21.8346 24.2519H25.6689V20.1336C25.6686 20.1055 25.6685 20.0772 25.6685 20.0488C25.6685 20.0207 25.6686 19.9924 25.6689 19.9642V15.8463H21.8346ZM25.6689 13.4058H21.8346C19.7169 13.4058 18.0002 11.5241 18.0002 9.20292C18.0002 6.88172 19.7169 5 21.8346 5H25.6689V13.4058ZM27.8953 5V13.4058L31.7288 13.4056C33.8464 13.4056 35.5637 11.5241 35.5637 9.20292C35.5637 6.88172 33.847 5 31.7292 5H27.8953ZM31.7289 15.846C29.6319 15.8462 27.9281 17.6916 27.8953 19.9815V20.1162C27.9281 22.4064 29.6321 24.2519 31.7292 24.2519C33.847 24.2519 35.5637 22.3702 35.5637 20.0488C35.5637 17.7277 33.8465 15.846 31.7289 15.846ZM21.8346 26.6923C19.717 26.6923 18 28.5743 18 30.8956C18 33.217 19.7167 35.0987 21.8344 35.0987C23.9521 35.0987 25.6688 33.217 25.6688 30.8956L25.6689 26.6923H21.8346Z" fill="white"/>
</svg>
