<svg width="92" height="97" viewBox="0 0 92 97" fill="none" xmlns="http://www.w3.org/2000/svg">
<path d="M6.5995 61.398H12.2903V47.9503H17.7025V61.398H23.3535V42.9747H12.2874V41.8344C12.2874 41.8253 12.2874 41.8163 12.2874 41.8042C12.2874 40.6911 13.1345 39.7897 14.1806 39.7897C14.2715 39.7897 14.3625 39.7958 14.4506 39.8109H14.4392H17.6996V34.8353H13.4927C13.2994 34.8111 13.072 34.799 12.8446 34.799C9.39088 34.799 6.59097 37.7783 6.59097 41.4533C6.59097 41.4593 6.59097 41.4654 6.59097 41.4684V42.9808H3.37036V47.9564H6.59665V61.4011L6.5995 61.398ZM30.0448 61.398H35.0733L41.3496 42.9747H35.5963L32.5406 53.6972L29.4223 42.9747H23.6917L30.0391 61.398H30.0448ZM51.8955 50.0555C51.7988 48.3435 50.4714 46.9915 48.8454 46.9915C48.8085 46.9915 48.7687 46.9915 48.7317 46.9945H48.7374C48.6521 46.9854 48.5527 46.9794 48.4503 46.9794C46.8443 46.9794 45.5396 48.3496 45.5111 50.0525L51.8955 50.0555ZM57.4441 53.6276H45.5111C45.6476 55.4545 47.0745 56.8822 48.817 56.8822C48.9108 56.8822 49.0046 56.8792 49.0984 56.8701H49.0871C49.1979 56.8852 49.323 56.8943 49.4509 56.8943C50.6164 56.8943 51.6141 56.1321 52.0291 55.0492L52.0348 55.0281L57.0974 56.5404C55.75 59.6165 52.8676 61.7096 49.5277 61.7096C49.3713 61.7096 49.2178 61.7035 49.0643 61.6975H49.0871C48.9876 61.7005 48.8682 61.7035 48.7516 61.7035C43.9364 61.7035 40.0307 57.5507 40.0307 52.4238C40.0307 52.3422 40.0307 52.2605 40.0335 52.1788V52.1909C40.025 52.0397 40.0193 51.8643 40.0193 51.6888C40.0193 46.7344 43.7942 42.7176 48.4503 42.7176C48.5498 42.7176 48.6493 42.7206 48.7488 42.7237H48.7346C48.9051 42.7116 49.1041 42.7025 49.3031 42.7025C53.8398 42.7025 57.5181 46.6164 57.5181 51.4438C57.5181 51.5769 57.5152 51.71 57.5095 51.8431V51.8249C57.5095 52.6718 57.4754 53.2223 57.4385 53.6276H57.4441ZM81.549 47.9533H78.5302C76.5916 47.9533 75.5455 49.502 75.5455 52.082V61.4041H69.8263V47.9564H67.3959C65.4516 47.9564 64.4112 49.505 64.4112 52.0851V61.4071H58.692V42.9838H64.4112V45.7816C64.9769 44.1271 66.4408 42.9656 68.1634 42.9656C68.297 42.9656 68.4306 42.9717 68.5585 42.9868H68.5415H75.5455V45.7846C76.1083 44.1301 77.5751 42.9687 79.2948 42.9687C79.4284 42.9687 79.5592 42.9747 79.6899 42.9898H79.6729H81.5461L81.549 47.9533ZM85.0879 61.9576H85.0908C87.0436 61.9576 88.6241 60.2729 88.6241 58.1979C88.6241 56.123 87.0408 54.4383 85.0908 54.4383C83.1379 54.4383 81.5575 56.123 81.5575 58.1979C81.5575 58.8876 81.7337 59.5379 82.0379 60.0944L82.0293 60.0763C82.6519 61.2105 83.786 61.9576 85.0879 61.9606V61.9576Z" fill="white" stroke="white"/>
</svg>
