<svg width="146" height="151" viewBox="0 0 146 151" fill="none" xmlns="http://www.w3.org/2000/svg">
<path d="M10.2403 95.4427H19.2837V74.6167H27.8845V95.4427H36.8646V66.9112H19.2792V65.1452C19.2792 65.1312 19.2792 65.1171 19.2792 65.0984C19.2792 63.3746 20.6253 61.9787 22.2877 61.9787C22.4322 61.9787 22.5768 61.9881 22.7168 62.0115H22.6987H27.8799V54.306H21.1945C20.8873 54.2685 20.526 54.2498 20.1646 54.2498C14.6762 54.2498 10.2267 58.8637 10.2267 64.555C10.2267 64.5644 10.2267 64.5738 10.2267 64.5784V66.9205H5.10876V74.6261H10.2358V95.4474L10.2403 95.4427ZM47.4981 95.4427H55.489L65.463 66.9112H56.3202L51.4642 83.5167L46.5089 66.9112H37.4022L47.4891 95.4427H47.4981ZM82.2218 77.8769C82.0682 75.2256 79.9587 73.1318 77.3749 73.1318C77.3161 73.1318 77.2529 73.1318 77.1942 73.1365H77.2032C77.0677 73.1224 76.9096 73.1131 76.747 73.1131C74.1948 73.1131 72.1214 75.235 72.0762 77.8722L82.2218 77.8769ZM91.0394 83.409H72.0762C72.293 86.2382 74.5606 88.4492 77.3297 88.4492C77.4788 88.4492 77.6278 88.4445 77.7769 88.4304H77.7588C77.935 88.4539 78.1338 88.4679 78.337 88.4679C80.1891 88.4679 81.7746 87.2875 82.4341 85.6105L82.4432 85.5778L90.4883 87.9199C88.3471 92.6837 83.7667 95.9252 78.459 95.9252C78.2105 95.9252 77.9666 95.9158 77.7227 95.9064H77.7588C77.6007 95.9111 77.411 95.9158 77.2258 95.9158C69.5737 95.9158 63.367 89.4844 63.367 81.5447C63.367 81.4182 63.367 81.2917 63.3716 81.1652V81.184C63.358 80.9498 63.349 80.6781 63.349 80.4064C63.349 72.7337 69.3478 66.513 76.747 66.513C76.9051 66.513 77.0632 66.5177 77.2213 66.5224H77.1987C77.4697 66.5036 77.7859 66.4896 78.1021 66.4896C85.3116 66.4896 91.1568 72.551 91.1568 80.027C91.1568 80.2331 91.1523 80.4392 91.1433 80.6453V80.6172C91.1433 81.9288 91.0891 82.7813 91.0303 83.409H91.0394ZM129.345 74.6214H124.548C121.467 74.6214 119.805 77.0197 119.805 81.0153V95.4521H110.716V74.6261H106.854C103.764 74.6261 102.111 77.0244 102.111 81.02V95.4568H93.0224V66.9252H102.111V71.2581C103.01 68.6959 105.336 66.8971 108.074 66.8971C108.286 66.8971 108.498 66.9065 108.702 66.9299H108.675H119.805V71.2628C120.699 68.7005 123.03 66.9018 125.763 66.9018C125.975 66.9018 126.183 66.9112 126.391 66.9346H126.364H129.341L129.345 74.6214ZM134.969 96.3093H134.974C138.077 96.3093 140.589 93.7002 140.589 90.4868C140.589 87.2734 138.072 84.6643 134.974 84.6643C131.87 84.6643 129.359 87.2734 129.359 90.4868C129.359 91.5548 129.639 92.5619 130.122 93.4238L130.109 93.3957C131.098 95.1523 132.9 96.3093 134.969 96.314V96.3093Z" fill="white" stroke="white"/>
</svg>
