<svg width="146" height="151" viewBox="0 0 146 151" fill="none" xmlns="http://www.w3.org/2000/svg">
<path d="M10.2404 95.4427H19.2838V74.6167H27.8846V95.4427H36.8648V66.9112H19.2793V65.1452C19.2793 65.1312 19.2793 65.1171 19.2793 65.0984C19.2793 63.3746 20.6255 61.9787 22.2878 61.9787C22.4323 61.9787 22.5769 61.9881 22.7169 62.0115H22.6988H27.8801V54.306H21.1946C20.8875 54.2685 20.5261 54.2498 20.1647 54.2498C14.6763 54.2498 10.2269 58.8637 10.2269 64.555C10.2269 64.5644 10.2269 64.5738 10.2269 64.5784V66.9205H5.10889V74.6261H10.2359V95.4474L10.2404 95.4427ZM47.4982 95.4427H55.4892L65.4631 66.9112H56.3203L51.4643 83.5167L46.509 66.9112H37.4023L47.4892 95.4427H47.4982ZM82.2219 77.8769C82.0683 75.2256 79.9588 73.1318 77.375 73.1318C77.3163 73.1318 77.253 73.1318 77.1943 73.1365H77.2033C77.0678 73.1224 76.9097 73.1131 76.7471 73.1131C74.1949 73.1131 72.1215 75.235 72.0763 77.8722L82.2219 77.8769ZM91.0395 83.409H72.0763C72.2931 86.2382 74.5608 88.4492 77.3298 88.4492C77.4789 88.4492 77.6279 88.4445 77.777 88.4304H77.7589C77.9351 88.4539 78.1339 88.4679 78.3372 88.4679C80.1892 88.4679 81.7747 87.2875 82.4342 85.6105L82.4433 85.5778L90.4884 87.9199C88.3472 92.6837 83.7668 95.9252 78.4591 95.9252C78.2107 95.9252 77.9667 95.9158 77.7228 95.9064H77.7589C77.6008 95.9111 77.4111 95.9158 77.2259 95.9158C69.5738 95.9158 63.3672 89.4844 63.3672 81.5447C63.3672 81.4182 63.3672 81.2917 63.3717 81.1652V81.184C63.3581 80.9498 63.3491 80.6781 63.3491 80.4064C63.3491 72.7337 69.3479 66.513 76.7471 66.513C76.9052 66.513 77.0633 66.5177 77.2214 66.5224H77.1988C77.4698 66.5036 77.786 66.4896 78.1023 66.4896C85.3117 66.4896 91.1569 72.551 91.1569 80.027C91.1569 80.2331 91.1524 80.4392 91.1434 80.6453V80.6172C91.1434 81.9288 91.0892 82.7813 91.0305 83.409H91.0395ZM129.345 74.6214H124.548C121.467 74.6214 119.805 77.0197 119.805 81.0153V95.4521H110.716V74.6261H106.854C103.764 74.6261 102.111 77.0244 102.111 81.02V95.4568H93.0226V66.9252H102.111V71.2581C103.01 68.6959 105.336 66.8971 108.074 66.8971C108.286 66.8971 108.498 66.9065 108.702 66.9299H108.675H119.805V71.2628C120.699 68.7005 123.03 66.9018 125.763 66.9018C125.975 66.9018 126.183 66.9112 126.391 66.9346H126.364H129.341L129.345 74.6214ZM134.969 96.3093H134.974C138.077 96.3093 140.589 93.7002 140.589 90.4868C140.589 87.2734 138.073 84.6643 134.974 84.6643C131.87 84.6643 129.359 87.2734 129.359 90.4868C129.359 91.5548 129.639 92.5619 130.122 93.4238L130.109 93.3957C131.098 95.1523 132.9 96.3093 134.969 96.314V96.3093Z" fill="white" stroke="white"/>
</svg>
