<svg width="39" height="39" viewBox="0 0 39 39" fill="none" xmlns="http://www.w3.org/2000/svg">
<g clip-path="url(#clip0_33_45)">
<rect width="39" height="39" rx="6" fill="black"/>
<path d="M13.2277 11.1224C12.2409 11.1224 11.5712 11.2184 11.2229 11.3167V17.6593C11.6382 17.753 12.1449 17.7843 12.8459 17.7843C15.429 17.7843 17.023 16.4783 17.023 14.277C17.0208 12.3034 15.65 11.1224 13.2277 11.1224Z" fill="#F9EEFF"/>
<path d="M36.6134 0.00506592H2.3888C1.06938 0.00506592 0 1.07221 0 2.38717V36.6096C0 37.9268 1.06938 38.9961 2.3888 38.9961H36.6134C37.9306 38.9961 39 37.9268 39 36.6096V2.3894C39 1.07221 37.9306 0.00506592 36.6134 0.00506592ZM19.8561 19.2539C18.2018 20.8167 15.7438 21.5177 12.8794 21.5177C12.2387 21.5177 11.6672 21.4864 11.2207 21.4217V29.106H6.40512V7.90598C7.90314 7.6537 10.0062 7.4617 12.9732 7.4617C15.967 7.4617 18.1058 8.03323 19.5368 9.18298C20.9143 10.268 21.8363 12.054 21.8363 14.157C21.8363 16.2601 21.1331 18.0394 19.8561 19.2539ZM27.114 29.4231C25.069 29.4231 23.254 28.981 22.073 28.3403L22.9325 24.8665C23.8255 25.4045 25.6763 26.043 27.114 26.043C28.5763 26.043 29.1836 25.534 29.1836 24.7348C29.1836 23.94 28.7058 23.5582 26.8908 22.951C23.6715 21.8682 22.4257 20.1134 22.457 18.2649C22.457 15.3671 24.944 13.1613 28.8018 13.1613C30.6191 13.1613 32.2444 13.5788 33.1999 14.0544L32.3404 17.4031C31.6394 17.0191 30.3021 16.5124 28.9603 16.5124C27.7838 16.5124 27.1163 16.9901 27.1163 17.7871C27.1163 18.5194 27.7168 18.9012 29.6301 19.5732C32.5949 20.5912 33.8406 22.0914 33.8696 24.382C33.8696 27.2865 31.5701 29.4231 27.114 29.4231Z" fill="#F9EEFF"/>
</g>
<defs>
<clipPath id="clip0_33_45">
<rect width="39" height="39" rx="6" fill="white"/>
</clipPath>
</defs>
</svg>
